<svg width="32" height="32" viewBox="0 0 32 32" fill="none" xmlns="http://www.w3.org/2000/svg">
<mask id="mask0_198_1211" style="mask-type:alpha" maskUnits="userSpaceOnUse" x="0" y="0" width="32" height="32">
<rect width="32" height="32" fill="#D9D9D9"/>
</mask>
<g mask="url(#mask0_198_1211)">
<path d="M18.0334 22.8C17.8334 22.6 17.7334 22.3609 17.7334 22.0827C17.7334 21.8054 17.8334 21.5667 18.0334 21.3667L22.4334 17H6.7334C6.44451 17 6.20584 16.9054 6.0174 16.716C5.82806 16.5276 5.7334 16.2889 5.7334 16C5.7334 15.7111 5.82806 15.472 6.0174 15.2827C6.20584 15.0943 6.44451 15 6.7334 15H22.4334L18.0001 10.6C17.8223 10.4 17.7334 10.1667 17.7334 9.90003C17.7334 9.63337 17.8334 9.40003 18.0334 9.20003C18.2334 8.97781 18.4667 8.8667 18.7334 8.8667C19.0001 8.8667 19.2445 8.97781 19.4667 9.20003L25.4334 15.1667C25.5445 15.2778 25.6281 15.4054 25.6841 15.5494C25.7392 15.6943 25.7667 15.8445 25.7667 16C25.7667 16.1556 25.7392 16.3054 25.6841 16.4494C25.6281 16.5943 25.5445 16.7223 25.4334 16.8334L19.4334 22.8334C19.2334 23.0334 19.0001 23.1334 18.7334 23.1334C18.4667 23.1334 18.2334 23.0223 18.0334 22.8Z" fill="#FFFFC8"/>
</g>
</svg>
