<svg width="24" height="24" viewBox="0 0 24 24" fill="none" xmlns="http://www.w3.org/2000/svg">
<mask id="mask0_198_1077" style="mask-type:alpha" maskUnits="userSpaceOnUse" x="0" y="0" width="24" height="24">
<rect width="24" height="24" fill="#D9D9D9"/>
</mask>
<g mask="url(#mask0_198_1077)">
<path d="M19.4249 20.45C17.4916 20.45 15.5709 19.9873 13.6629 19.062C11.7542 18.1373 10.0499 16.925 8.5499 15.425C7.0499 13.925 5.83757 12.225 4.9129 10.325C3.98757 8.425 3.5249 6.5 3.5249 4.55C3.5249 4.25 3.6249 4 3.8249 3.8C4.0249 3.6 4.2749 3.5 4.5749 3.5H7.8249C8.09157 3.5 8.32057 3.579 8.5119 3.737C8.7039 3.89567 8.8249 4.1 8.8749 4.35L9.4499 7.3C9.48324 7.55 9.4749 7.775 9.4249 7.975C9.3749 8.175 9.26657 8.35 9.0999 8.5L6.7999 10.75C7.5999 12.0833 8.54557 13.2917 9.6369 14.375C10.7289 15.4583 11.9666 16.4 13.3499 17.2L15.5749 14.95C15.7416 14.7833 15.9376 14.6667 16.1629 14.6C16.3876 14.5333 16.6166 14.5167 16.8499 14.55L19.6249 15.125C19.8749 15.175 20.0792 15.2917 20.2379 15.475C20.3959 15.6583 20.4749 15.8833 20.4749 16.15V19.4C20.4749 19.7 20.3749 19.95 20.1749 20.15C19.9749 20.35 19.7249 20.45 19.4249 20.45ZM6.0999 9.325L7.8749 7.625C7.90824 7.59167 7.92924 7.554 7.9379 7.512C7.9459 7.47067 7.94157 7.43333 7.9249 7.4L7.4999 5.15C7.48324 5.1 7.45824 5.06233 7.4249 5.037C7.39157 5.01233 7.3499 5 7.2999 5H5.1749C5.1249 5 5.08724 5.01233 5.0619 5.037C5.03724 5.06233 5.0249 5.09167 5.0249 5.125C5.0749 5.80833 5.18757 6.504 5.3629 7.212C5.53757 7.92067 5.78324 8.625 6.0999 9.325ZM18.8499 18.9C18.8832 18.9 18.9126 18.8873 18.9379 18.862C18.9626 18.8373 18.9749 18.8083 18.9749 18.775V16.675C18.9749 16.625 18.9626 16.5833 18.9379 16.55C18.9126 16.5167 18.8749 16.4917 18.8249 16.475L16.7249 16.05C16.6916 16.0333 16.6582 16.0333 16.6249 16.05L16.5249 16.1L14.7499 17.9C15.4166 18.2167 16.1082 18.4583 16.8249 18.625C17.5416 18.7917 18.2166 18.8833 18.8499 18.9Z" fill="#686868"/>
</g>
</svg>
