<svg width="16" height="13" viewBox="0 0 16 13" fill="none" xmlns="http://www.w3.org/2000/svg">
<path d="M5.54982 12.075C5.41648 12.075 5.29148 12.054 5.17482 12.012C5.05815 11.9707 4.94982 11.9 4.84982 11.8L0.549818 7.49999C0.366484 7.31666 0.278818 7.07899 0.286818 6.78699C0.295484 6.49566 0.391484 6.25833 0.574817 6.07499C0.758151 5.89166 0.991484 5.79999 1.27482 5.79999C1.55815 5.79999 1.79148 5.89166 1.97482 6.07499L5.54982 9.64999L14.0248 1.17499C14.2081 0.991661 14.4458 0.899994 14.7378 0.899994C15.0292 0.899994 15.2665 0.991661 15.4498 1.17499C15.6332 1.35833 15.7248 1.59566 15.7248 1.88699C15.7248 2.17899 15.6332 2.41666 15.4498 2.59999L6.24982 11.8C6.14982 11.9 6.04148 11.9707 5.92482 12.012C5.80815 12.054 5.68315 12.075 5.54982 12.075Z" fill="black"/>
</svg>
