<svg width="18" height="19" viewBox="0 0 18 19" fill="none" xmlns="http://www.w3.org/2000/svg">
<mask id="mask0_198_777" style="mask-type:alpha" maskUnits="userSpaceOnUse" x="0" y="0" width="18" height="19">
<rect y="0.5" width="18" height="18" fill="#D9D9D9"/>
</mask>
<g mask="url(#mask0_198_777)">
<path d="M14.1383 6.98752L11.607 4.47502L12.6008 3.50002C12.8133 3.28752 13.079 3.18127 13.398 3.18127C13.7165 3.18127 13.982 3.28752 14.1945 3.50002L15.1133 4.41877C15.3258 4.64377 15.4383 4.90927 15.4508 5.21527C15.4633 5.52177 15.357 5.78127 15.132 5.99377L14.1383 6.98752ZM3.41328 15.875C3.22578 15.875 3.06653 15.8095 2.93553 15.6785C2.80403 15.547 2.73828 15.3875 2.73828 15.2V13.625C2.73828 13.5375 2.75403 13.4533 2.78553 13.3723C2.81653 13.2908 2.86953 13.2125 2.94453 13.1375L10.8008 5.28127L13.332 7.81252L5.47578 15.6688C5.40078 15.7438 5.32278 15.797 5.24178 15.8285C5.16028 15.8595 5.07578 15.875 4.98828 15.875H3.41328Z" fill="#1C1C1C"/>
</g>
</svg>
