<svg width="1012" height="337" viewBox="0 0 1012 337" fill="none" xmlns="http://www.w3.org/2000/svg">
<circle opacity="0.8" cx="506.387" cy="168.5" r="167.762" stroke="#757575" stroke-width="0.975359"/>
<g opacity="0.8">
<mask id="path-2-inside-1_198_1194" fill="white">
<path d="M675.069 0.250695C697.164 0.250694 719.042 4.60259 739.455 13.0579C759.868 21.5132 778.416 33.9064 794.039 49.5298C809.662 65.1532 822.056 83.7009 830.511 104.114C838.966 124.527 843.318 146.405 843.318 168.5C843.318 190.595 838.966 212.473 830.511 232.886C822.056 253.299 809.662 271.847 794.039 287.47C778.416 303.094 759.868 315.487 739.455 323.942C719.042 332.397 697.164 336.749 675.069 336.749L675.069 168.5L675.069 0.250695Z"/>
</mask>
<path d="M675.069 0.250695C697.164 0.250694 719.042 4.60259 739.455 13.0579C759.868 21.5132 778.416 33.9064 794.039 49.5298C809.662 65.1532 822.056 83.7009 830.511 104.114C838.966 124.527 843.318 146.405 843.318 168.5C843.318 190.595 838.966 212.473 830.511 232.886C822.056 253.299 809.662 271.847 794.039 287.47C778.416 303.094 759.868 315.487 739.455 323.942C719.042 332.397 697.164 336.749 675.069 336.749L675.069 168.5L675.069 0.250695Z" stroke="#757575" stroke-width="1.95072" mask="url(#path-2-inside-1_198_1194)"/>
</g>
<g opacity="0.8">
<mask id="path-3-inside-2_198_1194" fill="white">
<path d="M337.705 0.250695C315.61 0.250694 293.732 4.60259 273.319 13.0579C252.906 21.5132 234.358 33.9064 218.735 49.5298C203.111 65.1532 190.718 83.7009 182.263 104.114C173.808 124.527 169.456 146.405 169.456 168.5C169.456 190.595 173.808 212.473 182.263 232.886C190.718 253.299 203.111 271.847 218.735 287.47C234.358 303.094 252.906 315.487 273.319 323.942C293.732 332.397 315.61 336.749 337.705 336.749L337.705 168.5L337.705 0.250695Z"/>
</mask>
<path d="M337.705 0.250695C315.61 0.250694 293.732 4.60259 273.319 13.0579C252.906 21.5132 234.358 33.9064 218.735 49.5298C203.111 65.1532 190.718 83.7009 182.263 104.114C173.808 124.527 169.456 146.405 169.456 168.5C169.456 190.595 173.808 212.473 182.263 232.886C190.718 253.299 203.111 271.847 218.735 287.47C234.358 303.094 252.906 315.487 273.319 323.942C293.732 332.397 315.61 336.749 337.705 336.749L337.705 168.5L337.705 0.250695Z" stroke="#757575" stroke-width="1.95072" mask="url(#path-3-inside-2_198_1194)"/>
</g>
<g opacity="0.8">
<mask id="path-4-inside-3_198_1194" fill="white">
<path d="M169.023 0.250695C146.928 0.250694 125.05 4.60259 104.637 13.0579C84.2239 21.5132 65.6763 33.9064 50.0529 49.5298C34.4295 65.1532 22.0363 83.7009 13.581 104.114C5.12568 124.527 0.773782 146.405 0.773781 168.5C0.77378 190.595 5.12568 212.473 13.581 232.886C22.0363 253.299 34.4295 271.847 50.0529 287.47C65.6763 303.094 84.2239 315.487 104.637 323.942C125.05 332.397 146.928 336.749 169.023 336.749L169.023 168.5L169.023 0.250695Z"/>
</mask>
<path d="M169.023 0.250695C146.928 0.250694 125.05 4.60259 104.637 13.0579C84.2239 21.5132 65.6763 33.9064 50.0529 49.5298C34.4295 65.1532 22.0363 83.7009 13.581 104.114C5.12568 124.527 0.773782 146.405 0.773781 168.5C0.77378 190.595 5.12568 212.473 13.581 232.886C22.0363 253.299 34.4295 271.847 50.0529 287.47C65.6763 303.094 84.2239 315.487 104.637 323.942C125.05 332.397 146.928 336.749 169.023 336.749L169.023 168.5L169.023 0.250695Z" stroke="#757575" stroke-width="1.95072" mask="url(#path-4-inside-3_198_1194)"/>
</g>
<g opacity="0.8">
<mask id="path-5-inside-4_198_1194" fill="white">
<path d="M843.751 0.250695C865.845 0.250694 887.724 4.60259 908.137 13.0579C928.55 21.5132 947.097 33.9064 962.721 49.5298C978.344 65.1532 990.737 83.7009 999.193 104.114C1007.65 124.527 1012 146.405 1012 168.5C1012 190.595 1007.65 212.473 999.193 232.886C990.737 253.299 978.344 271.847 962.721 287.47C947.097 303.094 928.55 315.487 908.137 323.942C887.724 332.397 865.845 336.749 843.751 336.749L843.751 168.5L843.751 0.250695Z"/>
</mask>
<path d="M843.751 0.250695C865.845 0.250694 887.724 4.60259 908.137 13.0579C928.55 21.5132 947.097 33.9064 962.721 49.5298C978.344 65.1532 990.737 83.7009 999.193 104.114C1007.65 124.527 1012 146.405 1012 168.5C1012 190.595 1007.65 212.473 999.193 232.886C990.737 253.299 978.344 271.847 962.721 287.47C947.097 303.094 928.55 315.487 908.137 323.942C887.724 332.397 865.845 336.749 843.751 336.749L843.751 168.5L843.751 0.250695Z" stroke="#757575" stroke-width="1.95072" mask="url(#path-5-inside-4_198_1194)"/>
</g>
</svg>
