<svg width="24" height="24" viewBox="0 0 24 24" fill="none" xmlns="http://www.w3.org/2000/svg">
<mask id="mask0_198_1171" style="mask-type:alpha" maskUnits="userSpaceOnUse" x="0" y="0" width="24" height="24">
<rect width="24" height="24" fill="#D9D9D9"/>
</mask>
<g mask="url(#mask0_198_1171)">
<path d="M4.3 19.5C3.8 19.5 3.375 19.325 3.025 18.975C2.675 18.625 2.5 18.2 2.5 17.7V6.3C2.5 5.8 2.675 5.375 3.025 5.025C3.375 4.675 3.8 4.5 4.3 4.5H19.7C20.2 4.5 20.625 4.675 20.975 5.025C21.325 5.375 21.5 5.8 21.5 6.3V17.7C21.5 18.2 21.325 18.625 20.975 18.975C20.625 19.325 20.2 19.5 19.7 19.5H4.3ZM20 7.45L12.475 12.25C12.4083 12.3 12.3333 12.3373 12.25 12.362C12.1667 12.3873 12.0833 12.4 12 12.4C11.9167 12.4 11.8333 12.3873 11.75 12.362C11.6667 12.3373 11.5917 12.3 11.525 12.25L4 7.45V17.7C4 17.7833 4.02933 17.8543 4.088 17.913C4.146 17.971 4.21667 18 4.3 18H19.7C19.7833 18 19.8543 17.971 19.913 17.913C19.971 17.8543 20 17.7833 20 17.7V7.45ZM12 11L19.85 6H4.15L12 11ZM4 7.45V18V17.7V7.45Z" fill="#686868"/>
</g>
</svg>
