<svg width="18" height="18" viewBox="0 0 18 18" fill="none" xmlns="http://www.w3.org/2000/svg">
<mask id="mask0_198_718" style="mask-type:alpha" maskUnits="userSpaceOnUse" x="0" y="0" width="18" height="18">
<rect width="18" height="18" fill="#D9D9D9"/>
</mask>
<g mask="url(#mask0_198_718)">
<path d="M7.16255 12.9563C7.07505 12.9563 6.9908 12.9405 6.9098 12.909C6.8283 12.878 6.7563 12.8313 6.6938 12.7688L3.56255 9.63755C3.45005 9.52505 3.3968 9.39055 3.4028 9.23405C3.4093 9.07805 3.46255 8.9438 3.56255 8.8313C3.67505 8.7188 3.80955 8.66255 3.96605 8.66255C4.12205 8.66255 4.25005 8.7188 4.35005 8.8313L7.16255 11.6438L13.6501 5.1563C13.7501 5.0438 13.8813 4.98755 14.0438 4.98755C14.2063 4.98755 14.3376 5.0438 14.4376 5.1563C14.5501 5.2688 14.6063 5.40305 14.6063 5.55905C14.6063 5.71555 14.5501 5.85005 14.4376 5.96255L7.6313 12.7688C7.5688 12.8313 7.49705 12.878 7.41605 12.909C7.33455 12.9405 7.25005 12.9563 7.16255 12.9563Z" fill="white"/>
</g>
</svg>
