<svg width="33" height="32" viewBox="0 0 33 32" fill="none" xmlns="http://www.w3.org/2000/svg">
<path d="M12.9668 9.178L12.9701 9.17933C13.0394 8.884 13.2914 8.66667 13.6068 8.66667H22.5881C22.5994 8.66667 22.6108 8.662 22.6221 8.66267C22.4308 5.47667 19.7581 4 17.4001 4H8.41878C8.10278 4 7.85078 4.22333 7.78212 4.518L7.77878 4.51667L3.85278 22.542L3.86145 22.5427C3.85212 22.5853 3.83545 22.626 3.83545 22.672C3.83545 23.0407 4.13345 23.3327 4.50212 23.3327H9.88278L12.9668 9.178Z" fill="#1565C0"/>
<path d="M22.6219 8.66272C22.6573 9.24672 22.6186 9.88205 22.4693 10.5841C21.6153 14.5807 18.5279 16.6607 14.7126 16.6607C14.7126 16.6607 12.3993 16.6607 11.8373 16.6607C11.4899 16.6607 11.3259 16.8647 11.2506 17.0207L10.0906 22.3867L9.88726 23.3394H9.88326L9.04126 27.2034L9.04993 27.2041C9.04059 27.2467 9.02393 27.2874 9.02393 27.3334C9.02393 27.7021 9.32193 28.0001 9.69059 28.0001H14.5793L14.5879 27.9934C14.9026 27.9887 15.1526 27.7641 15.2179 27.4681L15.2299 27.4581L16.4379 21.8474C16.4379 21.8474 16.5219 21.3121 17.0846 21.3121C17.6473 21.3121 19.8699 21.3121 19.8699 21.3121C23.6853 21.3121 26.8039 19.2414 27.6586 15.2441C28.6199 10.7374 25.4053 8.67939 22.6219 8.66272Z" fill="#039BE5"/>
<path d="M13.6067 8.66666C13.2907 8.66666 13.0387 8.88399 12.97 9.17933L12.9667 9.17799L11.25 17.0213C11.3253 16.8653 11.4893 16.6613 11.8367 16.6613C12.3993 16.6613 14.66 16.6613 14.66 16.6613C18.4753 16.6613 21.6147 14.5813 22.4687 10.5847C22.6187 9.88266 22.6567 9.24733 22.6213 8.66333C22.6107 8.66199 22.5987 8.66666 22.588 8.66666H13.6067Z" fill="#283593"/>
</svg>
